Coordinates
version=1
nRows=32
nColumns=22
inDegrees=yes

Units are S.I. units (second, meters, Newtons, ...)
If the header above contains a line with 'inDegrees', this indicates whether rotational values are in degrees (yes) or radians (no).

endheader
time	pelvis_tilt	pelvis_list	pelvis_rotation	pelvis_tx	pelvis_ty	pelvis_tz	hip_flexion_r	hip_adduction_r	hip_rotation_r	knee_angle_r	ankle_angle_r	subtalar_angle_r	hip_flexion_l	hip_adduction_l	hip_rotation_l	knee_angle_l	ankle_angle_l	subtalar_angle_l	lumbar_extension	lumbar_bending	lumbar_rotation
      3.75000000	      2.07439402	     -0.35751431	     63.98519722	      0.32657288	      0.93618695	     -0.32575467	     26.50231121	     -0.86654869	      6.24217216	    -22.86563553	     10.28593988	      6.16760452	      2.29626131	      6.29965668	     14.80677150	    -25.46225183	     17.12780030	    -11.69713248	     -7.58374054	      0.00327215	     -6.02525233
      3.76000000	      1.99409643	     -0.39807206	     64.50128619	      0.33063513	      0.93507041	     -0.33147056	     26.39545031	     -0.90531163	      6.58982173	    -20.78975699	     10.32223778	      6.60276711	      1.92799346	      6.23126199	     15.22045706	    -25.51505981	     17.49717105	    -11.58685590	     -7.48838778	     -0.00672751	     -6.13183885
      3.77000000	      1.90295097	     -0.44377835	     65.02926798	      0.33468862	      0.93392779	     -0.33721822	     26.28909092	     -0.97170988	      6.88543868	    -18.85762438	     10.36303901	      7.02282333	      1.58407046	      6.16539549	     15.61895714	    -25.59166293	     17.84398515	    -11.45221283	     -7.38298424	     -0.02253131	     -6.25893669
      3.78000000	      1.80565158	     -0.48966790	     65.56487736	      0.33872486	      0.93276896	     -0.34300212	     26.19463614	     -1.06041476	      7.09227332	    -17.12139849	     10.40485957	      7.38793166	      1.25723795	      6.10719602	     16.01904097	    -25.69687163	     18.17002063	    -11.30615801	     -7.27684387	     -0.04090505	     -6.38191630
      3.79000000	      1.68580816	     -0.56544401	     66.10605084	      0.34275737	      0.93154490	     -0.34882770	     26.17088814	     -1.16630704	      7.18243222	    -15.63989255	     10.36146853	      7.55004419	      0.96985981	      6.05768498	     16.42117929	    -25.80412601	     18.47218019	    -11.26483701	     -7.12585248	     -0.06523402	     -6.51474138
      3.80000000	      1.58331993	     -0.59882323	     66.66839926	      0.34675500	      0.93038651	     -0.35473802	     26.12657238	     -1.28971100	      7.09334857	    -14.43748000	     10.35772551	      7.68810687	      0.63669848	      6.00597905	     16.79989134	    -25.91791196	     18.74643182	    -11.18641230	     -7.03146417	     -0.08023760	     -6.68856083
      3.81000000	      1.47500026	     -0.61419163	     67.22165923	      0.35079452	      0.92923767	     -0.36071052	     26.11477539	     -1.41367326	      6.89220374	    -13.56011787	     10.35569229	      7.75593414	      0.28942702	      5.96429115	     17.14660023	    -26.04046191	     18.98690394	    -11.12011652	     -6.94766485	     -0.10869304	     -6.85498349
      3.82000000	      1.36726712	     -0.61414841	     67.76719103	      0.35486300	      0.92810166	     -0.36673062	     26.13384978	     -1.52877284	      6.59964753	    -13.01184876	     10.34262685	      7.73903440	     -0.07204432	      5.92554617	     17.46623816	    -26.16932826	     19.19481916	    -11.07075175	     -6.88254458	     -0.14044386	     -7.01528357
      3.83000000	      1.26239672	     -0.60146572	     68.30114912	      0.35898612	      0.92698182	     -0.37279386	     26.17803075	     -1.62556739	      6.27057105	    -12.78009765	     10.29914278	      7.62728685	     -0.44427746	      5.88536514	     17.76286490	    -26.31052913	     19.37284676	    -11.03411171	     -6.83182835	     -0.17448882	     -7.16569193
      3.84000000	      1.15688055	     -0.58138490	     68.82002639	      0.36317203	      0.92587789	     -0.37890528	     26.24492847	     -1.70521900	      5.94749242	    -12.83949791	     10.19433001	      7.43763316	     -0.82263385	      5.84552690	     18.04316692	    -26.46184721	     19.53161565	    -11.00607114	     -6.78739953	     -0.21234282	     -7.29000441
      3.85000000	      1.08033124	     -0.54396386	     69.31767301	      0.36747541	      0.92482496	     -0.38501772	     26.30448450	     -1.72874606	      5.70114349	    -13.15510230	      9.95621889	      6.78241729	     -1.20013445	      5.77011823	     18.24239327	    -26.66478634	     19.67740882	    -10.86957191	     -6.77734346	     -0.23112025	     -7.41007758
      3.86000000	      0.99726739	     -0.53256972	     69.82408494	      0.37182815	      0.92379267	     -0.39121443	     26.39464861	     -1.74436946	      5.49066493	    -13.67220568	      9.63629988	      6.47103416	     -1.56026034	      5.69087673	     18.50336322	    -26.86099950	     19.75630678	    -10.80642487	     -6.72706717	     -0.24633450	     -7.54082402
      3.87000000	      0.94117622	     -0.53048792	     70.28232998	      0.37636227	      0.92280645	     -0.39740168	     26.48710909	     -1.68198699	      5.42555422	    -14.34066399	      9.12942564	      5.63550393	     -1.88267164	      5.56864242	     18.66193896	    -27.12566879	     19.86093049	    -10.58774544	     -6.67603296	     -0.24121287	     -7.60421585
      3.88000000	      0.91565049	     -0.55355332	     70.74581959	      0.38095464	      0.92192710	     -0.40364281	     26.57011685	     -1.57158326	      5.43506174	    -15.08604256	      8.44181405	      4.95361856	     -2.17121483	      5.40697449	     18.85243041	    -27.43155713	     19.88988166	    -10.34768167	     -6.60494886	     -0.19203554	     -7.67359783
      3.89000000	      0.93985693	     -0.61326679	     71.20011446	      0.38564081	      0.92115801	     -0.40991576	     26.65747036	     -1.38239265	      5.50472880	    -15.88097633	      7.60378686	      4.28836985	     -2.39777128	      5.18044203	     19.01943677	    -27.81248036	     19.89011106	    -10.04130206	     -6.50646003	     -0.07888940	     -7.74146581
      3.90000000	      1.00787117	     -0.69957288	     71.62224133	      0.39041953	      0.92054555	     -0.41621923	     26.74311811	     -1.11650047	      5.65524654	    -16.68965835	      6.65408424	      3.62162565	     -2.57244240	      4.90602365	     19.15798739	    -28.26391862	     19.82121899	     -9.64283937	     -6.38742171	      0.09136789	     -7.77204440
      3.91000000	      1.13367852	     -0.81502674	     72.01700176	      0.39527328	      0.92010785	     -0.42253524	     26.83835636	     -0.76690482	      5.82737336	    -17.51541424	      5.66053473	      3.04299791	     -2.68020621	      4.57036199	     19.25090094	    -28.80653508	     19.68589014	     -9.16298866	     -6.25279213	      0.33261177	     -7.77122518
      3.92000000	      1.30928823	     -0.94525337	     72.36959385	      0.40019097	      0.91986831	     -0.42888513	     26.92846246	     -0.35025042	      5.99822622	    -18.34182643	      4.71276694	      2.60896937	     -2.73149037	      4.19021687	     19.27538457	    -29.44175382	     19.45943164	     -8.61407237	     -6.11141594	      0.63590822	     -7.72632909
      3.93000000	      1.51952948	     -1.07929276	     72.68032807	      0.40516507	      0.91983183	     -0.43526619	     27.01110606	      0.10994380	      6.14475829	    -19.17105092	      3.86345814	      2.29484676	     -2.73333402	      3.78009774	     19.20803720	    -30.15787206	     19.12947525	     -7.96338782	     -5.96837846	      0.97801780	     -7.65936786
      3.94000000	      1.74204887	     -1.19687356	     72.94852122	      0.41018718	      0.92001470	     -0.44169520	     27.06707413	      0.57792994	      6.23862783	    -19.99724389	      3.15426436	      2.09466521	     -2.70607854	      3.36610814	     19.04269568	    -30.93498139	     18.66146033	     -7.18915500	     -5.83556934	      1.32946983	     -7.58172351
      3.95000000	      1.97603726	     -1.28815790	     73.17581537	      0.41522994	      0.92039888	     -0.44814144	     27.07450564	      1.03933865	      6.24791141	    -20.79104172	      2.60014841	      2.01286801	     -2.63936846	      2.95536722	     18.76744323	    -31.80706553	     18.06977092	     -6.33881255	     -5.73175407	      1.68110626	     -7.45531833
      3.96000000	      2.21763527	     -1.34030880	     73.36621804	      0.42028646	      0.92098416	     -0.45459008	     27.01145287	      1.48384055	      6.17868769	    -21.53314103	      2.16892948	      2.01463227	     -2.54168656	      2.54224618	     18.33753976	    -32.76320337	     17.34445417	     -5.53842935	     -5.67148408	      2.02567882	     -7.32174668
      3.97000000	      2.43072883	     -1.35569776	     73.53003015	      0.42536244	      0.92174588	     -0.46108228	     26.89895823	      1.87223103	      6.00520785	    -22.24813300	      1.95972025	      2.02349898	     -2.43170773	      2.16169150	     17.82585707	    -33.74933287	     16.47616842	     -4.48519412	     -5.63168302	      2.32101105	     -7.18195984
      3.98000000	      2.63691954	     -1.32203867	     73.68556085	      0.43042312	      0.92268851	     -0.46754323	     26.67846766	      2.21884153	      5.75626128	    -22.85619614	      1.87586820	      2.02526856	     -2.28893499	      1.79089032	     17.20525364	    -34.82037334	     15.45351956	     -3.46413213	     -5.64742912	      2.57999539	     -7.03846349
      3.99000000	      2.84042380	     -1.25424973	     73.84766725	      0.43544572	      0.92377747	     -0.47395441	     26.36099864	      2.53503731	      5.45230617	    -23.35393359	      1.88169044	      1.98966372	     -2.09934532	      1.41577553	     16.50165204	    -35.96801857	     14.29336826	     -2.43612099	     -5.70422037	      2.81536102	     -6.91310775
      4.00000000	      3.04626845	     -1.15838782	     74.03493042	      0.44040535	      0.92498593	     -0.48031040	     25.94411242	      2.82685769	      5.09395542	    -23.73021442	      1.96310912	      1.90198882	     -1.85752714	      1.02495713	     15.74573387	    -37.18671492	     13.00462083	     -1.40072495	     -5.79506015	      3.03411286	     -6.81517723
      4.01000000	      3.26196806	     -1.04245624	     74.25467208	      0.44528921	      0.92627709	     -0.48658466	     25.43324193	      3.10883218	      4.68993644	    -23.97953006	      2.08034233	      1.76295606	     -1.55244053	      0.60711369	     14.96123916	    -38.48219078	     11.61928403	     -0.38197312	     -5.91487567	      3.24517342	     -6.74847910
      4.02000000	      3.48799919	     -0.91594072	     74.51430402	      0.45005622	      0.92761423	     -0.49276451	     24.84111289	      3.38415315	      4.24612193	    -24.10182269	      2.20139294	      1.59214657	     -1.17367630	      0.15861358	     14.16797573	    -39.85183974	     10.15343079	      0.56741597	     -6.05239086	      3.45560545	     -6.70427050
      4.03000000	      3.71470182	     -0.78368447	     74.80110795	      0.45471006	      0.92894325	     -0.49880474	     24.19906132	      3.65697554	      3.78951258	    -24.13447996	      2.33889907	      1.36626359	     -0.71524657	     -0.30658907	     13.38992775	    -41.29688705	      8.66501688	      1.50038882	     -6.20285928	      3.65391080	     -6.66914728
      4.04000000	      3.91316549	     -0.66098166	     75.10252181	      0.45921311	      0.93022322	     -0.50467039	     23.53881085	      3.90915203	      3.37309386	    -24.08068369	      2.45248055	      1.20661461	     -0.16112887	     -0.75380729	     12.63460277	    -42.80292904	      7.09767149	      2.20629592	     -6.34122715	      3.81824005	     -6.64743210
      4.05000000	      4.10003430	     -0.56273291	     75.40216386	      0.46359632	      0.93137117	     -0.51036438	     22.91243416	      4.15405654	      2.88744493	    -24.01032269	      2.60469763	      0.83296629	      0.49183919	     -1.21318141	     11.88051831	    -44.37329910	      5.68695336	      3.06494942	     -6.45468251	      3.96736978	     -6.57283268
      4.06000000	      4.22347074	     -0.46171341	     75.67581386	      0.46784491	      0.93245866	     -0.51583312	     22.29971345	      4.35743963	      2.52894012	    -23.91260362	      2.76072383	      0.64626789	      1.20278522	     -1.60197718	     11.14836936	    -45.96227363	      4.20048792	      3.61432845	     -6.56673742	      4.03895613	     -6.48294876
